<?xml version="1.0" encoding="UTF-8" standalone="no"?>
<svg width="88px" height="112px" viewBox="0 0 88 112" version="1.1" xmlns="http://www.w3.org/2000/svg" xmlns:xlink="http://www.w3.org/1999/xlink" xmlns:sketch="http://www.bohemiancoding.com/sketch/ns">
    <!-- Generator: Sketch 3.0.3 (7892) - http://www.bohemiancoding.com/sketch -->
    <title>Audio</title>
    <desc>Created with Sketch.</desc>
    <defs></defs>
    <g id="Page-1" stroke="none" stroke-width="1" fill="none" fill-rule="evenodd" sketch:type="MSPage">
        <g id="Audio" sketch:type="MSArtboardGroup">
            <g id="Group-2" sketch:type="MSLayerGroup">
                <path d="M68,0.167772786 L1.99828427,0.00493026059 C0.894662343,0.00220735286 0,0.901537657 0,1.99150398 L0,110.008496 C0,111.108373 0.899631158,112 2.00334454,112 L85.9966555,112 C87.1030721,112 88,111.104253 88,109.99289 L88,20 L68,0.167772786 Z" id="Rectangle-10" fill="#DC2725" sketch:type="MSShapeGroup"></path>
                <path d="M68,0 L68,20 L88,20 L68,0 Z" id="Rectangle-3" fill="#FF4745" sketch:type="MSShapeGroup"></path>
                <path d="M68,20 L68,40 L88,40 L68,20 Z" id="Rectangle-9" fill="#C40200" sketch:type="MSShapeGroup" transform="translate(78.000000, 30.000000) scale(-1, -1) translate(-78.000000, -30.000000) "></path>
            </g>
            <path d="M26.4615385,71.3589744 L26.4615385,59.6666667 C26.4615385,59.1388863 26.6543784,58.68216 27.0400641,58.2964744 C27.4257498,57.9107887 27.882476,57.7179487 28.4102564,57.7179487 L36.3878205,57.7179487 L46.5272436,47.5785256 C46.9129293,47.19284 47.3696555,47 47.8974359,47 C48.4252163,47 48.8819425,47.19284 49.2676282,47.5785256 C49.6533139,47.9642113 49.8461538,48.4209375 49.8461538,48.9487179 L49.8461538,82.0769231 C49.8461538,82.6047035 49.6533139,83.0614297 49.2676282,83.4471154 C48.8819425,83.8328011 48.4252163,84.025641 47.8974359,84.025641 C47.3696555,84.025641 46.9129293,83.8328011 46.5272436,83.4471154 L36.3878205,73.3076923 L28.4102564,73.3076923 C27.882476,73.3076923 27.4257498,73.1148524 27.0400641,72.7291667 C26.6543784,72.343481 26.4615385,71.8867548 26.4615385,71.3589744 L26.4615385,71.3589744 Z M54.1089744,70.8717949 C54.1089744,70.4455107 54.230768,70.0852045 54.474359,69.7908654 C54.7179499,69.4965263 55.0122846,69.2427895 55.3573718,69.0296474 C55.702459,68.8165053 56.047541,68.5830675 56.3926282,68.3293269 C56.7377154,68.0755863 57.0320501,67.7152801 57.275641,67.2483974 C57.519232,66.7815148 57.6410256,66.2029949 57.6410256,65.5128205 C57.6410256,64.8226461 57.519232,64.2441263 57.275641,63.7772436 C57.0320501,63.3103609 56.7377154,62.9500547 56.3926282,62.6963141 C56.047541,62.4425735 55.702459,62.2091357 55.3573718,61.9959936 C55.0122846,61.7828515 54.7179499,61.5291147 54.474359,61.2347756 C54.230768,60.9404366 54.1089744,60.5801303 54.1089744,60.1538462 C54.1089744,59.6057665 54.3018143,59.1439656 54.6875,58.7684295 C55.0731857,58.3928934 55.5299119,58.2051282 56.0576923,58.2051282 C56.362181,58.2051282 56.6159178,58.2558756 56.8189103,58.3573718 C58.2398575,58.9054515 59.381673,59.8493523 60.244391,61.1891026 C61.107109,62.5288529 61.5384615,63.9700778 61.5384615,65.5128205 C61.5384615,67.0555633 61.107109,68.4917134 60.244391,69.8213141 C59.381673,71.1509148 58.2398575,72.0998903 56.8189103,72.6682692 C56.6159178,72.7697655 56.362181,72.8205128 56.0576923,72.8205128 C55.5299119,72.8205128 55.0731857,72.6327476 54.6875,72.2572115 C54.3018143,71.8816755 54.1089744,71.4198745 54.1089744,70.8717949 L54.1089744,70.8717949 Z" id="Type-something-2" fill="#FFFFFF" sketch:type="MSShapeGroup"></path>
        </g>
    </g>
</svg>