<?xml version="1.0" encoding="UTF-8" standalone="no"?>
<!-- Generator: Adobe Illustrator 19.0.0, SVG Export Plug-In . SVG Version: 6.00 Build 0)  -->

<svg
   xmlns:dc="http://purl.org/dc/elements/1.1/"
   xmlns:cc="http://creativecommons.org/ns#"
   xmlns:rdf="http://www.w3.org/1999/02/22-rdf-syntax-ns#"
   xmlns:svg="http://www.w3.org/2000/svg"
   xmlns="http://www.w3.org/2000/svg"
   xmlns:sodipodi="http://sodipodi.sourceforge.net/DTD/sodipodi-0.dtd"
   xmlns:inkscape="http://www.inkscape.org/namespaces/inkscape"
   version="1.1"
   id="Layer_1"
   x="0px"
   y="0px"
   viewBox="0 0 473 473"
   style="enable-background:new 0 0 473 473;"
   xml:space="preserve"
   sodipodi:docname="delete-svgrepo-com.svg"
   inkscape:version="0.92.3 (2405546, 2018-03-11)"><metadata
   id="metadata43"><rdf:RDF><cc:Work
       rdf:about=""><dc:format>image/svg+xml</dc:format><dc:type
         rdf:resource="http://purl.org/dc/dcmitype/StillImage" /></cc:Work></rdf:RDF></metadata><defs
   id="defs41" /><sodipodi:namedview
   pagecolor="#ffffff"
   bordercolor="#666666"
   borderopacity="1"
   objecttolerance="10"
   gridtolerance="10"
   guidetolerance="10"
   inkscape:pageopacity="0"
   inkscape:pageshadow="2"
   inkscape:window-width="1920"
   inkscape:window-height="1049"
   id="namedview39"
   showgrid="false"
   inkscape:zoom="0.49894292"
   inkscape:cx="240.50847"
   inkscape:cy="236.5"
   inkscape:window-x="0"
   inkscape:window-y="0"
   inkscape:window-maximized="1"
   inkscape:current-layer="Layer_1" />
<g
   id="g6">
	<path
   d="M317.667,214.42l5.667-86.42h20.951V38h-98.384V0H132.669v38H34.285v90h20.951l20,305h140.571   c23.578,24.635,56.766,40,93.478,40c71.368,0,129.43-58.062,129.43-129.43C438.715,275.019,385.143,218.755,317.667,214.42z    M162.669,30h53.232v8h-53.232V30z M64.285,68h250v30h-250V68z M103.334,403L85.301,128H293.27l-5.77,87.985   c-61.031,10.388-107.645,63.642-107.645,127.586c0,21.411,5.231,41.622,14.475,59.43H103.334z M309.285,443   c-54.826,0-99.43-44.604-99.43-99.43s44.604-99.429,99.43-99.429s99.43,44.604,99.43,99.429S364.111,443,309.285,443z"
   id="path2" />
	<polygon
   points="342.248,289.395 309.285,322.358 276.322,289.395 255.109,310.608 288.072,343.571 255.109,376.533    276.322,397.746 309.285,364.783 342.248,397.746 363.461,376.533 330.498,343.571 363.461,310.608  "
   id="polygon4" />
</g>
<g
   id="g8">
</g>
<g
   id="g10">
</g>
<g
   id="g12">
</g>
<g
   id="g14">
</g>
<g
   id="g16">
</g>
<g
   id="g18">
</g>
<g
   id="g20">
</g>
<g
   id="g22">
</g>
<g
   id="g24">
</g>
<g
   id="g26">
</g>
<g
   id="g28">
</g>
<g
   id="g30">
</g>
<g
   id="g32">
</g>
<g
   id="g34">
</g>
<g
   id="g36">
</g>
<path
   style="fill:#ffffff;stroke-width:2.00423717"
   d="m 279.72432,468.71871 c -17.0277,-4.30715 -38.2477,-15.10945 -52.75454,-26.85536 L 214.4332,431.71271 H 145.46811 76.50302 L 75.257078,417.18199 C 74.304648,406.07433 56.118644,131.06303 56.118644,127.76792 c 0,-0.3846 -4.509534,-0.69928 -10.021186,-0.69928 H 36.076271 V 82.975424 38.882203 H 85.180085 134.2839 V 19.841949 0.80169492 h 55.11652 55.11653 V 19.841949 38.882203 h 49.10381 49.10382 v 44.093221 44.093216 h -9.86167 -9.86165 l -1.16298,12.52649 c -2.04901,22.07003 -5.37292,74.12635 -4.75952,74.53995 0.32607,0.21986 7.8081,1.90128 16.62675,3.73646 48.47927,10.08869 88.0165,47.57161 100.07832,94.87834 3.99625,15.67334 4.04756,46.40585 0.10342,61.92204 -4.96007,19.51279 -15.799,39.21539 -30.02839,54.58442 -16.13783,17.43035 -30.4051,27.06588 -51.72415,34.93237 -13.72157,5.06311 -20.05364,6.18223 -38.47157,6.79938 -15.19371,0.50911 -25.74315,-0.19622 -33.93882,-2.26938 z m 53.89791,-28.04944 c 45.05433,-11.73517 75.1946,-50.67301 75.1946,-97.143 0,-23.49936 -6.03909,-41.79971 -19.86685,-60.2027 -24.00483,-31.94744 -65.36667,-46.72011 -103.42614,-36.93935 -50.23959,12.91087 -82.99649,61.26141 -75.31751,111.17171 9.07912,59.01062 66.7761,97.86613 123.4159,83.11334 z m -140.15517,-40.5233 c -10.09058,-25.78034 -11.79586,-33.96562 -11.79586,-56.6197 0,-19.67247 0.7714,-25.28588 5.26615,-38.321 15.15508,-43.95092 48.34951,-75.29037 91.15057,-86.05689 8.4282,-2.12011 10.52387,-3.4689 10.53041,-6.77749 0.01,-5.0406 3.48294,-55.49357 5.00963,-72.77576 l 1.10656,-12.52649 H 189.25283 83.77114 l 1.244411,13.52861 c 1.141199,12.40652 17.200549,256.01111 17.200549,260.91543 0,1.45636 14.80521,2.14071 46.31189,2.14071 43.29338,0 46.22241,-0.2286 44.93907,-3.50742 z M 314.66525,82.975424 V 66.941525 H 189.40042 64.135593 V 82.975424 99.009322 H 189.40042 314.66525 Z M 216.45763,33.87161 v -5.010593 h -27.05721 -27.0572 v 5.010593 5.010593 h 27.0572 27.05721 z"
   id="path45"
   inkscape:connector-curvature="0" /><path
   style="fill:#ffffff;stroke-width:2.00423717"
   d="m 266.04385,386.15041 -9.48603,-9.48603 16.48299,-16.56905 16.48298,-16.56906 -16.50753,-16.59373 -16.50753,-16.59373 10.06831,-9.91692 10.06832,-9.91692 16.47616,16.47616 16.47616,16.47616 16.54774,-16.46178 16.54774,-16.46178 10.05372,9.90254 10.05371,9.90254 -16.50753,16.59373 -16.50753,16.59373 16.50753,16.59373 16.50753,16.59373 -10.05371,9.90254 -10.05372,9.90254 -16.5637,-16.47766 -16.56371,-16.47766 -15.94242,16.03647 c -8.76834,8.82007 -16.42641,16.03648 -17.01794,16.03648 -0.59153,0 -5.34422,-4.26871 -10.56154,-9.48603 z"
   id="path47"
   inkscape:connector-curvature="0" /></svg>