<?xml version="1.0" encoding="UTF-8" standalone="no"?>
<svg width="88px" height="112px" viewBox="0 0 88 112" version="1.1" xmlns="http://www.w3.org/2000/svg" xmlns:xlink="http://www.w3.org/1999/xlink" xmlns:sketch="http://www.bohemiancoding.com/sketch/ns">
    <!-- Generator: Sketch 3.0.3 (7892) - http://www.bohemiancoding.com/sketch -->
    <title>Excel</title>
    <desc>Created with Sketch.</desc>
    <defs></defs>
    <g id="Page-1" stroke="none" stroke-width="1" fill="none" fill-rule="evenodd" sketch:type="MSPage">
        <g id="Excel" sketch:type="MSArtboardGroup">
            <g id="Group-3-+-Rectangle-14" sketch:type="MSLayerGroup">
                <g id="Group-3" sketch:type="MSShapeGroup">
                    <path d="M68,0.167772786 L1.99828427,0.00493026059 C0.894662343,0.00220735286 0,0.901537657 0,1.99150398 L0,110.008496 C0,111.108373 0.899631158,112 2.00334454,112 L85.9966555,112 C87.1030721,112 88,111.104253 88,109.99289 L88,20 L68,0.167772786 Z" id="Rectangle-1" fill="#0F9D58"></path>
                    <path d="M68,0 L68,20 L88,20 L68,0 Z" id="Rectangle-2" fill="#27C578"></path>
                    <path d="M68,20 L68,40 L88,40 L68,20 Z" id="Rectangle-8" fill="#0C8148" transform="translate(78.000000, 30.000000) scale(-1, -1) translate(-78.000000, -30.000000) "></path>
                </g>
                <path d="M12,38 L12,92 L75,92 L75,38 L12,38 Z M15,41 L15,55 L29,55 L29,41 L15,41 Z M32,41 L32,55 L72,55 L72,41 L32,41 Z M15,58 L15,72 L29,72 L29,58 L15,58 Z M32,58 L32,72 L72,72 L72,58 L32,58 Z M15,75 L15,89 L29,89 L29,75 L15,75 Z M32,75 L32,89 L72,89 L72,75 L32,75 Z" id="Rectangle-14" fill="#FFFFFF" sketch:type="MSShapeGroup"></path>
            </g>
        </g>
    </g>
</svg>