<?xml version="1.0" encoding="UTF-8" standalone="no"?>
<svg width="88px" height="112px" viewBox="0 0 88 112" version="1.1" xmlns="http://www.w3.org/2000/svg" xmlns:xlink="http://www.w3.org/1999/xlink" xmlns:sketch="http://www.bohemiancoding.com/sketch/ns">
    <!-- Generator: Sketch 3.0.3 (7892) - http://www.bohemiancoding.com/sketch -->
    <title>PDF</title>
    <desc>Created with Sketch.</desc>
    <defs></defs>
    <g id="Page-1" stroke="none" stroke-width="1" fill="none" fill-rule="evenodd" sketch:type="MSPage">
        <g id="PDF" sketch:type="MSArtboardGroup">
            <g id="Group" sketch:type="MSLayerGroup">
                <path d="M68,0.167772786 L1.99828427,0.00493026059 C0.894662343,0.00220735286 0,0.901537657 0,1.99150398 L0,110.008496 C0,111.108373 0.899631158,112 2.00334454,112 L85.9966555,112 C87.1030721,112 88,111.104253 88,109.99289 L88,20 L68,0.167772786 Z" id="Rectangle-10" fill="#FF3A00" sketch:type="MSShapeGroup"></path>
                <path d="M68,0 L68,20 L88,20 L68,0 Z" id="Rectangle-3" fill="#FF7951" sketch:type="MSShapeGroup"></path>
                <path d="M68,20 L68,40 L88,40 L68,20 Z" id="Rectangle-9" fill="#D73100" sketch:type="MSShapeGroup" transform="translate(78.000000, 30.000000) scale(-1, -1) translate(-78.000000, -30.000000) "></path>
                <path d="M74.00875,67.2851695 C72.7908062,66.0978793 70.0896713,65.4690546 65.979368,65.4156494 C63.197014,65.3853017 59.8481826,65.6277443 56.3257753,66.115681 C54.748514,65.2152529 53.1231039,64.2353103 51.8469017,63.0553103 C48.4142809,59.8837213 45.5489944,55.4814397 43.7635449,50.6405575 C43.8798904,50.1883937 43.9789298,49.7909914 44.0711152,49.3854511 C44.0711152,49.3854511 46.0046096,38.5191092 45.4927921,34.8451724 C45.422368,34.3412989 45.3790169,34.1951552 45.2421096,33.8035172 L45.0741882,33.3766149 C44.5483202,32.1764397 43.5171461,30.9047184 41.9004747,30.9740603 L40.9524045,30.9442213 L40.9263596,30.9437126 C39.1236039,30.9437126 37.6542921,31.8560086 37.2685871,33.2196207 C36.0962219,37.4964425 37.305941,43.8945517 39.4981713,52.1813391 L38.9370056,53.5310489 C37.3672837,57.3172213 35.4002051,61.1303506 33.664618,64.4943678 L33.4389522,64.9319511 C31.6130646,68.4675431 29.9562978,71.4689138 28.4544298,74.0115086 L26.9037275,74.8227586 C26.790809,74.8817586 24.1331966,76.2724971 23.5098315,76.6456552 C18.2216798,79.769773 14.7174354,83.3163851 14.1360506,86.1307529 C13.9509944,87.0288075 14.0887584,88.1779511 15.029632,88.7101379 L16.5294438,89.4569626 C17.1800534,89.7794282 17.866132,89.9428649 18.5690028,89.9428649 C22.3354101,89.9428649 26.7080478,85.3005144 32.7316264,74.8992213 C39.6863118,72.6589167 47.6044888,70.7968563 54.5440955,69.7697816 C59.8325899,72.7162213 66.3369719,74.7625718 70.4423062,74.7625718 C71.1712219,74.7625718 71.7995562,74.6937385 72.3101742,74.5601408 C73.0975197,74.3538103 73.7611517,73.9094454 74.1657051,73.3065603 C74.962132,72.1206264 75.1237135,70.4869368 74.9074719,68.8142529 C74.8430449,68.3180086 74.4422612,67.704273 74.00875,67.2851695 L74.00875,67.2851695 Z M17.7525281,87.1149339 C18.4392921,85.256773 21.1580758,81.5833448 25.1779073,78.3239339 C25.4306461,78.1211638 26.0531545,77.5438793 26.6232303,77.0079626 C22.4195421,83.6417328 19.6044607,86.2857126 17.7525281,87.1149339 L17.7525281,87.1149339 Z M41.5617191,32.8654511 C42.7724663,32.8654511 43.4611152,35.8849626 43.5183455,38.7157759 C43.5754045,41.5467586 42.9062893,43.5336006 42.0762781,45.0036839 C41.3888287,42.8271264 41.0565843,39.3964799 41.0565843,37.1532931 C41.0565843,37.1532931 41.0060365,32.8654511 41.5617191,32.8654511 L41.5617191,32.8654511 Z M34.4593315,71.5248621 C35.3027079,70.0310431 36.1801826,68.4556753 37.0768483,66.7850259 C39.2625674,62.6952069 40.6429494,59.4949655 41.6710393,56.8645489 C43.7157388,60.5452672 46.2621461,63.6744713 49.2556011,66.1816322 C49.6289691,66.4942644 50.0246124,66.808592 50.440132,67.1220718 C44.3528118,68.3137701 39.0915618,69.7631695 34.4593315,71.5248621 L34.4593315,71.5248621 Z M72.8391264,71.1856121 C72.4683287,71.415 71.4063118,71.5475805 70.7231461,71.5475805 C68.5184073,71.5475805 65.7905421,70.5501753 61.9663904,68.9280144 C63.4357022,68.8203563 64.783014,68.7657644 65.991191,68.7657644 C68.2026124,68.7657644 68.857677,68.7562701 71.0200927,69.3020201 C73.1825084,69.8477701 73.2097528,70.9562241 72.8391264,71.1856121 L72.8391264,71.1856121 Z" id="Shape" fill="#FFFFFF" sketch:type="MSShapeGroup"></path>
            </g>
        </g>
    </g>
</svg>