<?xml version="1.0" encoding="utf-8"?>
<!-- Svg Vector Icons : http://www.onlinewebfonts.com/icon -->
<!DOCTYPE svg PUBLIC "-//W3C//DTD SVG 1.1//EN" "http://www.w3.org/Graphics/SVG/1.1/DTD/svg11.dtd">
<svg version="1.1" xmlns="http://www.w3.org/2000/svg" xmlns:xlink="http://www.w3.org/1999/xlink" x="0px" y="0px" viewBox="0 0 1000 1000" enable-background="new 0 0 1000 1000" xml:space="preserve">
<metadata> Svg Vector Icons : http://www.onlinewebfonts.com/icon </metadata>
<g><path d="M952.1,882.2H368.9c-33,0-33.2-33.6-33.2-67.7V382.5l192.5-0.8c7.7,0,14.3-3.9,19.9-11.7c5.6-7.8,8.4-17,8.4-27.6c0-10.6-2.8-19.8-8.4-27.6L304,20.4c-5.6-7.8-12.2-11.6-19.9-11.6c-7.7,0-14.3,3.9-19.9,11.6L18.4,314.9c-5.6,7.8-8.4,17-8.4,27.6c0,10.6,2.8,19.8,8.4,27.6c5.6,7.8,12.2,11.7,19.9,11.7l194.3,0.8l-1.8,461.1c0,68.3,72.2,147.6,138.2,147.6l581.4,0C1020.3,957.2,982.5,892,952.1,882.2L952.1,882.2z"/></g>
</svg>