<?xml version="1.0" encoding="UTF-8" standalone="no"?>
<svg width="88px" height="112px" viewBox="0 0 88 112" version="1.1" xmlns="http://www.w3.org/2000/svg" xmlns:xlink="http://www.w3.org/1999/xlink" xmlns:sketch="http://www.bohemiancoding.com/sketch/ns">
    <!-- Generator: Sketch 3.0.3 (7892) - http://www.bohemiancoding.com/sketch -->
    <title>Word</title>
    <desc>Created with Sketch.</desc>
    <defs></defs>
    <g id="Page-1" stroke="none" stroke-width="1" fill="none" fill-rule="evenodd" sketch:type="MSPage">
        <g id="Word" sketch:type="MSArtboardGroup">
            <g id="Group-2-+-Group" sketch:type="MSLayerGroup">
                <g id="Group-2" sketch:type="MSShapeGroup">
                    <path d="M68,0.167772786 L1.99828427,0.00493026059 C0.894662343,0.00220735286 0,0.901537657 0,1.99150398 L0,110.008496 C0,111.108373 0.899631158,112 2.00334454,112 L85.9966555,112 C87.1030721,112 88,111.104253 88,109.99289 L88,20 L68,0.167772786 Z" id="Rectangle-1" fill="#5B9DD7"></path>
                    <path d="M68,0 L68,20 L88,20 L68,0 Z" id="Rectangle-2" fill="#98C2E7"></path>
                    <path d="M68,20 L68,40 L88,40 L68,20 Z" id="Rectangle-8" fill="#3D7EB7" transform="translate(78.000000, 30.000000) scale(-1, -1) translate(-78.000000, -30.000000) "></path>
                </g>
                <g id="Group" transform="translate(17.000000, 35.000000)" fill="#FFFFFF" sketch:type="MSShapeGroup">
                    <rect id="Rectangle-4" x="0" y="0" width="54" height="7"></rect>
                    <rect id="Rectangle-5" x="0" y="12" width="54" height="7"></rect>
                    <rect id="Rectangle-6" x="0" y="24" width="54" height="7"></rect>
                    <rect id="Rectangle-7" x="0" y="36" width="37" height="7"></rect>
                </g>
            </g>
        </g>
    </g>
</svg>